<svg width="30" height="30" viewBox="0 0 30 30" fill="none" xmlns="http://www.w3.org/2000/svg">
<path d="M18.0272 22.857C18.0674 22.8429 18.1019 22.8341 18.1276 22.8283C18.2091 22.8101 18.2763 22.8071 18.3148 22.8067C18.3911 22.806 18.4502 22.8153 18.4735 22.8193C18.5258 22.8282 18.5656 22.8399 18.5775 22.8434C18.5951 22.8486 18.609 22.8533 18.6172 22.8561C18.6258 22.8591 18.6338 22.862 18.6408 22.8647L18.1939 23.8917M18.0272 22.857L17.9645 22.4675L17.8359 21.6694L18.6164 21.4587C22.1013 20.5177 24.8638 17.3798 24.8638 13.6401C24.8638 9.1596 21.1874 5.5498 16.7091 5.5498L13.2167 5.54979C8.73723 5.54979 5.10594 9.18108 5.10594 13.6605C5.10594 16.7735 6.85977 19.4769 9.43296 20.8364L9.43499 20.8375L9.43649 20.8382L9.43708 20.8385L9.51478 20.8762L9.51516 20.8764L9.69161 20.9618L9.69164 20.9618C9.80484 21.0164 9.94129 21.0819 10.002 21.1091L10.0085 21.112L10.015 21.115L17.8054 24.7554L17.8111 24.7581L17.811 24.7581C17.8459 24.7747 17.8819 24.7904 17.9219 24.8032C17.9624 24.8162 17.9986 24.8234 18.0291 24.8253C18.066 24.8275 18.1065 24.8234 18.1458 24.806C18.1867 24.7878 18.2184 24.7586 18.2406 24.7231C18.2586 24.6942 18.2708 24.6594 18.2777 24.6204C18.2789 24.6133 18.2799 24.6066 18.2807 24.6C18.2297 24.5976 18.1912 24.5914 18.1734 24.5884C18.121 24.5795 18.0811 24.5678 18.0691 24.5643C18.0514 24.559 18.0373 24.5543 18.0289 24.5514C18.0002 24.5414 17.978 24.532 17.9722 24.5295C17.9536 24.5217 17.9375 24.5142 17.9262 24.5088L17.9256 24.5085L17.9258 24.508M18.0272 22.857L18.1939 23.8917M18.0272 22.857C17.9511 22.8836 17.8545 22.929 17.7579 23.0075C17.586 23.147 17.4566 23.3594 17.4309 23.6136C17.4085 23.8349 17.4732 24.0048 17.5133 24.0892C17.5862 24.2424 17.6855 24.3355 17.7076 24.3562L17.709 24.3576C17.7693 24.4142 17.8248 24.4498 17.8363 24.4572L17.8373 24.4579C17.8575 24.4708 17.8739 24.4803 17.8826 24.4852C17.9006 24.4953 17.915 24.5026 17.9214 24.5058C17.9229 24.5066 17.9244 24.5073 17.9258 24.508M17.9258 24.508C17.9258 24.508 17.9258 24.508 17.9258 24.508C17.926 24.5081 17.9262 24.5082 17.9264 24.5083L18.2008 23.9341L18.2004 23.9319L18.1939 23.8917M17.9258 24.508L18.1939 23.8917M18.2008 23.9345L18.2059 23.9663L17.9822 24.5331C17.9758 24.5306 17.9658 24.5266 17.9531 24.5208C17.9482 24.5186 17.9389 24.5144 17.9271 24.5087L18.2008 23.9345Z" fill="#0099FF" stroke="#0099FF" stroke-width="1.7944"/>
</svg>
