<svg width="30" height="30" viewBox="0 0 30 30" fill="none" xmlns="http://www.w3.org/2000/svg">
<path d="M15.0005 15C17.8572 15 20.173 12.6842 20.173 9.82756C20.173 6.97092 17.8572 4.65515 15.0005 4.65515H10.188C10.0247 4.65515 10.2276 4.85861 10.3157 4.99608C10.5913 5.42594 11.1765 6.21463 10.654 7.02266C10.1314 7.83069 9.82812 8.79371 9.82812 9.82756C9.82812 12.6842 12.1439 15 15.0005 15Z" fill="#0099FF" stroke="#0099FF" stroke-width="1.75" stroke-linecap="square"/>
<path d="M6.66406 24.3091C6.66406 21.2081 9.6191 18.1656 13.4146 18.1656C14.6987 18.1656 15.3023 18.1656 16.5864 18.1656C20.4854 18.1656 23.337 21.2081 23.337 24.3091C23.337 24.4334 23.2362 24.5341 23.1119 24.5341H6.88908C6.76481 24.5341 6.66406 24.4334 6.66406 24.3091Z" fill="#0099FF" stroke="#0099FF" stroke-width="1.75" stroke-linecap="square"/>
</svg>
